<svg xmlns="http://www.w3.org/2000/svg" width="1200" height="800" viewBox="0 0 1200 800" role="img" aria-label="Ilustração do módulo Cargos e Salários: Estrutura de cargos, faixas e equidade remuneratória." font-family="Manrope, Arial, sans-serif">
  <defs>
    <linearGradient id="il-cargos-e-salarios-grad" x1="0" y1="0" x2="1" y2="1">
      <stop offset="0" stop-color="#9A408A"/>
      <stop offset="0.5" stop-color="#511C76"/>
      <stop offset="1" stop-color="#2C1A63"/>
    </linearGradient>
    <clipPath id="il-cargos-e-salarios-clip"><rect width="1200" height="800"/></clipPath>
  </defs>
  <rect width="1200" height="800" fill="#FFFFFF"/>
  <g clip-path="url(#il-cargos-e-salarios-clip)">
    <g fill="none" stroke="#511C76" stroke-opacity="0.22" stroke-width="3">
      <path d="M1322.51 -753.33 L1565.19 -510.65 C1599.71 -476.13 1599.71 -420.16 1565.19 -385.63 L1322.51 -142.95 C1287.98 -108.43 1232.02 -108.43 1197.49 -142.95 L954.81 -385.63 C920.29 -420.16 920.29 -476.13 954.81 -510.65 L1197.49 -753.33 C1232.02 -787.85 1287.98 -787.85 1322.51 -753.33 Z"/>
      <path d="M1730.65 -345.19 L1973.33 -102.51 C2007.85 -67.98 2007.85 -12.02 1973.33 22.51 L1730.65 265.19 C1696.13 299.71 1640.16 299.71 1605.63 265.19 L1362.95 22.51 C1328.43 -12.02 1328.43 -67.98 1362.95 -102.51 L1605.63 -345.19 C1640.16 -379.71 1696.13 -379.71 1730.65 -345.19 Z"/>
      <path d="M914.37 -345.19 L1157.05 -102.51 C1191.57 -67.98 1191.57 -12.02 1157.05 22.51 L914.37 265.19 C879.84 299.71 823.87 299.71 789.35 265.19 L546.67 22.51 C512.15 -12.02 512.15 -67.98 546.67 -102.51 L789.35 -345.19 C823.87 -379.71 879.84 -379.71 914.37 -345.19 Z"/>
      <path d="M1322.51 62.95 L1565.19 305.63 C1599.71 340.16 1599.71 396.13 1565.19 430.65 L1322.51 673.33 C1287.98 707.85 1232.02 707.85 1197.49 673.33 L954.81 430.65 C920.29 396.13 920.29 340.16 954.81 305.63 L1197.49 62.95 C1232.02 28.43 1287.98 28.43 1322.51 62.95 Z"/>
    </g>
    <path d="M651.69 167.63 L852.37 368.31 C880.91 396.86 880.91 443.14 852.37 471.69 L651.69 672.37 C623.14 700.91 576.86 700.91 548.31 672.37 L347.63 471.69 C319.09 443.14 319.09 396.86 347.63 368.31 L548.31 167.63 C576.86 139.09 623.14 139.09 651.69 167.63 Z" fill="#E9E5F1"/>
    <!-- Tabela salarial -->
    <rect x="390" y="150" width="420" height="520" rx="22" fill="#FFFFFF" stroke="#E9E5F1" stroke-width="3"/>
    <rect x="420" y="180" width="150" height="12" rx="6" fill="#1B1238"/>
    <rect x="420" y="204" width="100" height="12" rx="6" fill="#8E88A3"/>
    <rect x="716" y="176" width="64" height="28" rx="14" fill="#511C76"/>
    <text x="748" y="195.4" text-anchor="middle" font-size="15" font-weight="700" fill="#FFFFFF">R$</text>
    <rect x="420" y="236" width="360" height="3" fill="#E9E5F1"/>
    <line x1="420" y1="262" x2="780" y2="262" stroke="#E9E5F1" stroke-width="3"/>
    <line x1="420" y1="332" x2="780" y2="332" stroke="#E9E5F1" stroke-width="3"/>
    <line x1="420" y1="402" x2="780" y2="402" stroke="#E9E5F1" stroke-width="3"/>
    <line x1="420" y1="472" x2="780" y2="472" stroke="#E9E5F1" stroke-width="3"/>
    <line x1="420" y1="542" x2="780" y2="542" stroke="#E9E5F1" stroke-width="3"/>
    <line x1="420" y1="612" x2="780" y2="612" stroke="#E9E5F1" stroke-width="3"/>
    <rect x="448" y="470" width="44" height="140" rx="22" fill="#511C76"/><rect x="458" y="537" width="24" height="6" rx="3" fill="#FFFFFF" fill-opacity="0.85"/>
    <rect x="534" y="400" width="44" height="140" rx="22" fill="#511C76"/><rect x="544" y="467" width="24" height="6" rx="3" fill="#FFFFFF" fill-opacity="0.85"/>
    <rect x="620" y="330" width="44" height="140" rx="22" fill="#511C76"/><rect x="630" y="397" width="24" height="6" rx="3" fill="#FFFFFF" fill-opacity="0.85"/>
    <rect x="706" y="262" width="44" height="140" rx="22" fill="#511C76"/><rect x="716" y="329" width="24" height="6" rx="3" fill="#FFFFFF" fill-opacity="0.85"/>
    <!-- Salário atual dentro da faixa -->
    <path d="M558.72 488.72 L569.28 499.28 C570.78 500.78 570.78 503.22 569.28 504.72 L558.72 515.28 C557.22 516.78 554.78 516.78 553.28 515.28 L542.72 504.72 C541.22 503.22 541.22 500.78 542.72 499.28 L553.28 488.72 C554.78 487.22 557.22 487.22 558.72 488.72 Z" fill="#C95788" />
    <!-- Ficha do cargo -->
    <rect x="150" y="300" width="190" height="170" rx="18" fill="#FFFFFF" stroke="#E9E5F1" stroke-width="3"/>
    <path d="M196 322 H286 L312 348 V430 a18 18 0 0 1 -18 18 H196 a18 18 0 0 1 -18 -18 V340 a18 18 0 0 1 18 -18 Z" fill="#FFFFFF" stroke="#E9E5F1" stroke-width="3" stroke-linejoin="round"/>
    <path d="M286 322 V348 H312" fill="none" stroke="#E9E5F1" stroke-width="3" stroke-linejoin="round"/>
    <rect x="198" y="348" width="72" height="8" rx="4" fill="#1B1238"/>
    <rect x="198" y="368" width="92" height="8" rx="4" fill="#E9E5F1"/>
    <rect x="198" y="388" width="62" height="8" rx="4" fill="#E9E5F1"/>
    <rect x="198" y="408" width="84" height="8" rx="4" fill="#E9E5F1"/>
    <line x1="346" y1="385" x2="384" y2="385" stroke="#511C76" stroke-width="3" stroke-linecap="round"/>
    <path d="M385.19 379.19 L389.81 383.81 C390.47 384.47 390.47 385.53 389.81 386.19 L385.19 390.81 C384.53 391.47 383.47 391.47 382.81 390.81 L378.19 386.19 C377.53 385.53 377.53 384.47 378.19 383.81 L382.81 379.19 C383.47 378.53 384.53 378.53 385.19 379.19 Z" fill="#511C76" />
    <!-- Escada de cargos -->
    <rect x="880" y="250" width="190" height="350" rx="18" fill="#FFFFFF" stroke="#E9E5F1" stroke-width="3"/>
    <path d="M900 570 H935 V515 H975 V460 H1015 V405 H1050" fill="none" stroke="#2C1A63" stroke-width="6" stroke-linecap="round" stroke-linejoin="round"/>
    <path d="M919.38 541.38 L928.62 550.62 C929.93 551.93 929.93 554.07 928.62 555.38 L919.38 564.62 C918.07 565.93 915.93 565.93 914.62 564.62 L905.38 555.38 C904.07 554.07 904.07 551.93 905.38 550.62 L914.62 541.38 C915.93 540.07 918.07 540.07 919.38 541.38 Z" fill="#511C76" />
    <path d="M957.38 486.38 L966.62 495.62 C967.93 496.93 967.93 499.07 966.62 500.38 L957.38 509.62 C956.07 510.93 953.93 510.93 952.62 509.62 L943.38 500.38 C942.07 499.07 942.07 496.93 943.38 495.62 L952.62 486.38 C953.93 485.07 956.07 485.07 957.38 486.38 Z" fill="#511C76" />
    <path d="M997.38 431.38 L1006.62 440.62 C1007.93 441.93 1007.93 444.07 1006.62 445.38 L997.38 454.62 C996.07 455.93 993.93 455.93 992.62 454.62 L983.38 445.38 C982.07 444.07 982.07 441.93 983.38 440.62 L992.62 431.38 C993.93 430.07 996.07 430.07 997.38 431.38 Z" fill="#511C76" />
    <path d="M1034.38 376.38 L1043.62 385.62 C1044.93 386.93 1044.93 389.07 1043.62 390.38 L1034.38 399.62 C1033.07 400.93 1030.93 400.93 1029.62 399.62 L1020.38 390.38 C1019.07 389.07 1019.07 386.93 1020.38 385.62 L1029.62 376.38 C1030.93 375.07 1033.07 375.07 1034.38 376.38 Z" fill="#511C76" />
    <path d="M161.19 694.19 L165.81 698.81 C166.47 699.47 166.47 700.53 165.81 701.19 L161.19 705.81 C160.53 706.47 159.47 706.47 158.81 705.81 L154.19 701.19 C153.53 700.53 153.53 699.47 154.19 698.81 L158.81 694.19 C159.47 693.53 160.53 693.53 161.19 694.19 Z" fill="#511C76" fill-opacity="1"/>
    <path d="M180.09 694.19 L184.71 698.81 C185.37 699.47 185.37 700.53 184.71 701.19 L180.09 705.81 C179.43 706.47 178.37 706.47 177.71 705.81 L173.09 701.19 C172.43 700.53 172.43 699.47 173.09 698.81 L177.71 694.19 C178.37 693.53 179.43 693.53 180.09 694.19 Z" fill="#511C76" fill-opacity="0.7"/>
    <path d="M198.99 694.19 L203.61 698.81 C204.27 699.47 204.27 700.53 203.61 701.19 L198.99 705.81 C198.33 706.47 197.27 706.47 196.61 705.81 L191.99 701.19 C191.33 700.53 191.33 699.47 191.99 698.81 L196.61 694.19 C197.27 693.53 198.33 693.53 198.99 694.19 Z" fill="#511C76" fill-opacity="0.45"/>
    <path d="M217.89 694.19 L222.51 698.81 C223.17 699.47 223.17 700.53 222.51 701.19 L217.89 705.81 C217.23 706.47 216.17 706.47 215.51 705.81 L210.89 701.19 C210.23 700.53 210.23 699.47 210.89 698.81 L215.51 694.19 C216.17 693.53 217.23 693.53 217.89 694.19 Z" fill="#511C76" fill-opacity="0.25"/>
    <path d="M236.79 694.19 L241.41 698.81 C242.07 699.47 242.07 700.53 241.41 701.19 L236.79 705.81 C236.13 706.47 235.07 706.47 234.41 705.81 L229.79 701.19 C229.13 700.53 229.13 699.47 229.79 698.81 L234.41 694.19 C235.07 693.53 236.13 693.53 236.79 694.19 Z" fill="#511C76" fill-opacity="0.12"/>
  </g>
</svg>
