<svg xmlns="http://www.w3.org/2000/svg" width="1200" height="800" viewBox="0 0 1200 800" role="img" aria-label="Ilustração do módulo Gestão de Benefícios: Benefícios, elegibilidade, custos e integração com operadoras." font-family="Manrope, Arial, sans-serif">
  <defs>
    <linearGradient id="il-gestao-de-beneficios-grad" x1="0" y1="0" x2="1" y2="1">
      <stop offset="0" stop-color="#9A408A"/>
      <stop offset="0.5" stop-color="#511C76"/>
      <stop offset="1" stop-color="#2C1A63"/>
    </linearGradient>
    <clipPath id="il-gestao-de-beneficios-clip"><rect width="1200" height="800"/></clipPath>
  </defs>
  <rect width="1200" height="800" fill="#FFFFFF"/>
  <g clip-path="url(#il-gestao-de-beneficios-clip)">
    <g fill="none" stroke="#511C76" stroke-opacity="0.22" stroke-width="3">
      <path d="M1322.51 -753.33 L1565.19 -510.65 C1599.71 -476.13 1599.71 -420.16 1565.19 -385.63 L1322.51 -142.95 C1287.98 -108.43 1232.02 -108.43 1197.49 -142.95 L954.81 -385.63 C920.29 -420.16 920.29 -476.13 954.81 -510.65 L1197.49 -753.33 C1232.02 -787.85 1287.98 -787.85 1322.51 -753.33 Z"/>
      <path d="M1730.65 -345.19 L1973.33 -102.51 C2007.85 -67.98 2007.85 -12.02 1973.33 22.51 L1730.65 265.19 C1696.13 299.71 1640.16 299.71 1605.63 265.19 L1362.95 22.51 C1328.43 -12.02 1328.43 -67.98 1362.95 -102.51 L1605.63 -345.19 C1640.16 -379.71 1696.13 -379.71 1730.65 -345.19 Z"/>
      <path d="M914.37 -345.19 L1157.05 -102.51 C1191.57 -67.98 1191.57 -12.02 1157.05 22.51 L914.37 265.19 C879.84 299.71 823.87 299.71 789.35 265.19 L546.67 22.51 C512.15 -12.02 512.15 -67.98 546.67 -102.51 L789.35 -345.19 C823.87 -379.71 879.84 -379.71 914.37 -345.19 Z"/>
      <path d="M1322.51 62.95 L1565.19 305.63 C1599.71 340.16 1599.71 396.13 1565.19 430.65 L1322.51 673.33 C1287.98 707.85 1232.02 707.85 1197.49 673.33 L954.81 430.65 C920.29 396.13 920.29 340.16 954.81 305.63 L1197.49 62.95 C1232.02 28.43 1287.98 28.43 1322.51 62.95 Z"/>
    </g>
    <path d="M651.69 167.63 L852.37 368.31 C880.91 396.86 880.91 443.14 852.37 471.69 L651.69 672.37 C623.14 700.91 576.86 700.91 548.31 672.37 L347.63 471.69 C319.09 443.14 319.09 396.86 347.63 368.31 L548.31 167.63 C576.86 139.09 623.14 139.09 651.69 167.63 Z" fill="#E9E5F1"/>
    <!-- Cartão de benefícios -->
    <rect x="390" y="250" width="400" height="320" rx="24" fill="#2C1A63"/>
    <path d="M459.91 302.91 L475.09 318.09 C477.25 320.25 477.25 323.75 475.09 325.91 L459.91 341.09 C457.75 343.25 454.25 343.25 452.09 341.09 L436.91 325.91 C434.75 323.75 434.75 320.25 436.91 318.09 L452.09 302.91 C454.25 300.75 457.75 300.75 459.91 302.91 Z" fill="#E9E5F1" />
    <path d="M735.4 285.4 L748.6 298.6 C750.48 300.48 750.48 303.52 748.6 305.4 L735.4 318.6 C733.52 320.48 730.48 320.48 728.6 318.6 L715.4 305.4 C713.52 303.52 713.52 300.48 715.4 298.6 L728.6 285.4 C730.48 283.52 733.52 283.52 735.4 285.4 Z" fill="none" stroke="#FFFFFF" stroke-width="4"/>
    <rect x="430" y="410" width="200" height="14" rx="7" fill="#FFFFFF" fill-opacity="0.9"/>
    <rect x="430" y="440" width="130" height="12" rx="6" fill="#FFFFFF" fill-opacity="0.55"/>
    <rect x="430" y="518" width="44" height="10" rx="5" fill="#FFFFFF" fill-opacity="0.5"/><rect x="486" y="518" width="44" height="10" rx="5" fill="#FFFFFF" fill-opacity="0.5"/><rect x="542" y="518" width="44" height="10" rx="5" fill="#FFFFFF" fill-opacity="0.5"/><rect x="598" y="518" width="44" height="10" rx="5" fill="#FFFFFF" fill-opacity="0.5"/>
    <!-- Azulejos de benefício -->
    <rect x="200" y="250" width="120" height="100" rx="20" fill="#FFFFFF" stroke="#E9E5F1" stroke-width="3"/>
    <path transform="translate(260 302) scale(3.2)" d="M0 9 C-2 7 -10 2.5 -10 -3.5 C-10 -7.5 -7 -10 -4 -10 C-2 -10 -0.7 -9 0 -7.5 C0.7 -9 2 -10 4 -10 C7 -10 10 -7.5 10 -3.5 C10 2.5 2 7 0 9 Z" fill="#C95788"/>
    <rect x="200" y="370" width="120" height="100" rx="20" fill="#FFFFFF" stroke="#E9E5F1" stroke-width="3"/>
    <g fill="none" stroke="#511C76" stroke-width="5" stroke-linecap="round" stroke-linejoin="round">
      <path d="M246 396 v12 a6 6 0 0 0 12 0 v-12"/>
      <path d="M252 396 v12"/>
      <path d="M252 414 v34"/>
      <path d="M272 396 v52"/>
    </g>
    <path d="M272 396 q16 12 0 32 z" fill="#511C76"/>
    <rect x="200" y="490" width="120" height="100" rx="20" fill="#FFFFFF" stroke="#E9E5F1" stroke-width="3"/>
    <rect x="228" y="518" width="64" height="44" rx="10" fill="#511C76"/>
    <rect x="236" y="526" width="22" height="14" rx="3" fill="#FFFFFF"/>
    <rect x="262" y="526" width="22" height="14" rx="3" fill="#FFFFFF"/>
    <circle cx="242" cy="564" r="6" fill="#2C1A63"/>
    <circle cx="278" cy="564" r="6" fill="#2C1A63"/>
    <line x1="326" y1="300" x2="382" y2="300" stroke="#511C76" stroke-width="3" stroke-linecap="round"/>
    <path d="M383.19 294.19 L387.81 298.81 C388.47 299.47 388.47 300.53 387.81 301.19 L383.19 305.81 C382.53 306.47 381.47 306.47 380.81 305.81 L376.19 301.19 C375.53 300.53 375.53 299.47 376.19 298.81 L380.81 294.19 C381.47 293.53 382.53 293.53 383.19 294.19 Z" fill="#511C76" />
    <line x1="326" y1="420" x2="382" y2="420" stroke="#511C76" stroke-width="3" stroke-linecap="round"/>
    <path d="M383.19 414.19 L387.81 418.81 C388.47 419.47 388.47 420.53 387.81 421.19 L383.19 425.81 C382.53 426.47 381.47 426.47 380.81 425.81 L376.19 421.19 C375.53 420.53 375.53 419.47 376.19 418.81 L380.81 414.19 C381.47 413.53 382.53 413.53 383.19 414.19 Z" fill="#511C76" />
    <line x1="326" y1="540" x2="382" y2="540" stroke="#511C76" stroke-width="3" stroke-linecap="round"/>
    <path d="M383.19 534.19 L387.81 538.81 C388.47 539.47 388.47 540.53 387.81 541.19 L383.19 545.81 C382.53 546.47 381.47 546.47 380.81 545.81 L376.19 541.19 C375.53 540.53 375.53 539.47 376.19 538.81 L380.81 534.19 C381.47 533.53 382.53 533.53 383.19 534.19 Z" fill="#511C76" />
    <!-- Elegibilidade conferida -->
    <line x1="796" y1="410" x2="822" y2="410" stroke="#511C76" stroke-width="3" stroke-linecap="round"/>
    <path d="M823.19 404.19 L827.81 408.81 C828.47 409.47 828.47 410.53 827.81 411.19 L823.19 415.81 C822.53 416.47 821.47 416.47 820.81 415.81 L816.19 411.19 C815.53 410.53 815.53 409.47 816.19 408.81 L820.81 404.19 C821.47 403.53 822.53 403.53 823.19 404.19 Z" fill="#511C76" />
    <rect x="830" y="250" width="220" height="320" rx="20" fill="#FFFFFF" stroke="#E9E5F1" stroke-width="3"/>
    <circle cx="866" cy="296" r="16" fill="#511C76"/><path d="M859.45 296.73 l4.36 4.36 l8.73 -9.45" fill="none" stroke="#FFFFFF" stroke-width="4" stroke-linecap="round" stroke-linejoin="round"/>
    <rect x="894" y="283" width="110" height="9" rx="4.5" fill="#1B1238"/>
    <rect x="894" y="301" width="70" height="9" rx="4.5" fill="#8E88A3"/>
    <circle cx="866" cy="360" r="16" fill="#511C76"/><path d="M859.45 360.73 l4.36 4.36 l8.73 -9.45" fill="none" stroke="#FFFFFF" stroke-width="4" stroke-linecap="round" stroke-linejoin="round"/>
    <rect x="894" y="347" width="96" height="9" rx="4.5" fill="#1B1238"/>
    <rect x="894" y="365" width="60" height="9" rx="4.5" fill="#8E88A3"/>
    <circle cx="866" cy="424" r="16" fill="#511C76"/><path d="M859.45 424.73 l4.36 4.36 l8.73 -9.45" fill="none" stroke="#FFFFFF" stroke-width="4" stroke-linecap="round" stroke-linejoin="round"/>
    <rect x="894" y="411" width="116" height="9" rx="4.5" fill="#1B1238"/>
    <rect x="894" y="429" width="54" height="9" rx="4.5" fill="#8E88A3"/>
    <circle cx="866" cy="488" r="16" fill="#511C76"/><path d="M859.45 488.73 l4.36 4.36 l8.73 -9.45" fill="none" stroke="#FFFFFF" stroke-width="4" stroke-linecap="round" stroke-linejoin="round"/>
    <rect x="894" y="475" width="90" height="9" rx="4.5" fill="#1B1238"/>
    <rect x="894" y="493" width="70" height="9" rx="4.5" fill="#8E88A3"/>
    <path d="M161.19 694.19 L165.81 698.81 C166.47 699.47 166.47 700.53 165.81 701.19 L161.19 705.81 C160.53 706.47 159.47 706.47 158.81 705.81 L154.19 701.19 C153.53 700.53 153.53 699.47 154.19 698.81 L158.81 694.19 C159.47 693.53 160.53 693.53 161.19 694.19 Z" fill="#511C76" fill-opacity="1"/>
    <path d="M180.09 694.19 L184.71 698.81 C185.37 699.47 185.37 700.53 184.71 701.19 L180.09 705.81 C179.43 706.47 178.37 706.47 177.71 705.81 L173.09 701.19 C172.43 700.53 172.43 699.47 173.09 698.81 L177.71 694.19 C178.37 693.53 179.43 693.53 180.09 694.19 Z" fill="#511C76" fill-opacity="0.7"/>
    <path d="M198.99 694.19 L203.61 698.81 C204.27 699.47 204.27 700.53 203.61 701.19 L198.99 705.81 C198.33 706.47 197.27 706.47 196.61 705.81 L191.99 701.19 C191.33 700.53 191.33 699.47 191.99 698.81 L196.61 694.19 C197.27 693.53 198.33 693.53 198.99 694.19 Z" fill="#511C76" fill-opacity="0.45"/>
    <path d="M217.89 694.19 L222.51 698.81 C223.17 699.47 223.17 700.53 222.51 701.19 L217.89 705.81 C217.23 706.47 216.17 706.47 215.51 705.81 L210.89 701.19 C210.23 700.53 210.23 699.47 210.89 698.81 L215.51 694.19 C216.17 693.53 217.23 693.53 217.89 694.19 Z" fill="#511C76" fill-opacity="0.25"/>
    <path d="M236.79 694.19 L241.41 698.81 C242.07 699.47 242.07 700.53 241.41 701.19 L236.79 705.81 C236.13 706.47 235.07 706.47 234.41 705.81 L229.79 701.19 C229.13 700.53 229.13 699.47 229.79 698.81 L234.41 694.19 C235.07 693.53 236.13 693.53 236.79 694.19 Z" fill="#511C76" fill-opacity="0.12"/>
  </g>
</svg>
