<svg xmlns="http://www.w3.org/2000/svg" width="1024" height="1024" viewBox="0 0 1024 1024" role="img" aria-label="Ícone do módulo Conexão com Outros Sistemas">
  <defs>
    <linearGradient id="ic-conexao-com-outros-sistemas-grad" gradientUnits="userSpaceOnUse" x1="73.59" y1="73.59" x2="950.41" y2="950.41">
      <stop offset="0" stop-color="#9A408A"/>
      <stop offset="0.5" stop-color="#511C76"/>
      <stop offset="1" stop-color="#2C1A63"/>
    </linearGradient>
    <clipPath id="ic-conexao-com-outros-sistemas-tile"><path d="M586.53 148.12 L875.88 437.47 C917.04 478.63 917.04 545.37 875.88 586.53 L586.53 875.88 C545.37 917.04 478.63 917.04 437.47 875.88 L148.12 586.53 C106.96 545.37 106.96 478.63 148.12 437.47 L437.47 148.12 C478.63 106.96 545.37 106.96 586.53 148.12 Z"/></clipPath>
  </defs>
  <path d="M586.53 148.12 L875.88 437.47 C917.04 478.63 917.04 545.37 875.88 586.53 L586.53 875.88 C545.37 917.04 478.63 917.04 437.47 875.88 L148.12 586.53 C106.96 545.37 106.96 478.63 148.12 437.47 L437.47 148.12 C478.63 106.96 545.37 106.96 586.53 148.12 Z" fill="url(#ic-conexao-com-outros-sistemas-grad)"/>
  <g clip-path="url(#ic-conexao-com-outros-sistemas-tile)" fill="none" stroke="#FFFFFF" stroke-opacity="0.1" stroke-width="30">
    <path d="M829.32 -66.66 L1090.66 194.68 C1127.84 231.86 1127.84 292.14 1090.66 329.32 L829.32 590.66 C792.14 627.84 731.86 627.84 694.68 590.66 L433.34 329.32 C396.16 292.14 396.16 231.86 433.34 194.68 L694.68 -66.66 C731.86 -103.84 792.14 -103.84 829.32 -66.66 Z"/>
  </g>
  <g transform="translate(292 292) scale(18.333333333333332)" fill="none" stroke="#FFFFFF" stroke-width="1.8" stroke-linecap="round" stroke-linejoin="round">
    <path d="M8 6.5L2.5 12 8 17.5"/>
    <path d="M16 6.5l5.5 5.5-5.5 5.5"/>
    <path d="M12.32 10.42 L13.58 11.68 C13.76 11.86 13.76 12.14 13.58 12.32 L12.32 13.58 C12.14 13.76 11.86 13.76 11.68 13.58 L10.42 12.32 C10.24 12.14 10.24 11.86 10.42 11.68 L11.68 10.42 C11.86 10.24 12.14 10.24 12.32 10.42 Z" fill="#C95788" stroke="none"/>
  </g>
</svg>
