<svg xmlns="http://www.w3.org/2000/svg" width="1024" height="1024" viewBox="0 0 1024 1024" role="img" aria-label="Ícone do módulo Ponto Eletrônico">
  <defs>
    <linearGradient id="ic-ponto-eletronico-grad" gradientUnits="userSpaceOnUse" x1="219.96" y1="219.96" x2="804.04" y2="804.04">
      <stop offset="0" stop-color="#C95788"/>
      <stop offset="1" stop-color="#81347D"/>
    </linearGradient>
  </defs>
  <path d="M582.92 165.73 L858.27 441.08 C897.44 480.25 897.44 543.75 858.27 582.92 L582.92 858.27 C543.75 897.44 480.25 897.44 441.08 858.27 L165.73 582.92 C126.56 543.75 126.56 480.25 165.73 441.08 L441.08 165.73 C480.25 126.56 543.75 126.56 582.92 165.73 Z" fill="url(#ic-ponto-eletronico-grad)"/>
  <g transform="translate(262 262) scale(20.833333333333332)" fill="none" stroke="#FFFFFF" stroke-width="1.15" stroke-linecap="round" stroke-linejoin="round">
    <path d="M12 3.5a8.5 8.5 0 1 0 8.5 8.5"/>
    <path d="M18.2 14.2L20.5 12l2.3 2.3"/>
    <path d="M12 12V7.3"/><path d="M12 12l3.4 1.9"/>
  </g>
</svg>
